<?xml version="1.0" encoding="UTF-8"?>
<!DOCTYPE svg PUBLIC "-//W3C//DTD SVG 1.1//EN" "http://www.w3.org/Graphics/SVG/1.1/DTD/svg11.dtd">
<!-- Creator: CorelDRAW -->
<svg xmlns="http://www.w3.org/2000/svg" xml:space="preserve" width="40.9326mm" height="26.3593mm" version="1.1" style="shape-rendering:geometricPrecision; text-rendering:geometricPrecision; image-rendering:optimizeQuality; fill-rule:evenodd; clip-rule:evenodd"
viewBox="0 0 87.66 56.45"
 xmlns:xlink="http://www.w3.org/1999/xlink"
 xmlns:xodm="http://www.corel.com/coreldraw/odm/2003">
 <defs>
  <style type="text/css">
   <![CDATA[
    .str0 {stroke:#CB01A8;stroke-width:0.54;stroke-miterlimit:22.9256}
    .str2 {stroke:#AE301A;stroke-width:0.43;stroke-miterlimit:22.9256}
    .str1 {stroke:#FFAE05;stroke-width:0.43;stroke-miterlimit:22.9256}
    .fil2 {fill:none}
    .fil3 {fill:#CB01A8;fill-rule:nonzero}
    .fil5 {fill:url(#id0)}
    .fil4 {fill:url(#id1)}
    .fil1 {fill:url(#id2);fill-rule:nonzero}
    .fil0 {fill:url(#id3);fill-rule:nonzero}
    .fil6 {fill:url(#id4);fill-rule:nonzero}
   ]]>
  </style>
  <linearGradient id="id0" gradientUnits="userSpaceOnUse" x1="35.88" y1="36.07" x2="72.7" y2="32.45">
   <stop offset="0" style="stop-opacity:1; stop-color:#E18D13"/>
   <stop offset="0.478431" style="stop-opacity:1; stop-color:white"/>
   <stop offset="1" style="stop-opacity:1; stop-color:#EF7F1A"/>
  </linearGradient>
  <linearGradient id="id1" gradientUnits="userSpaceOnUse" x1="70.54" y1="36.95" x2="28.39" y2="47.87">
   <stop offset="0" style="stop-opacity:1; stop-color:#D301AC"/>
   <stop offset="1" style="stop-opacity:1; stop-color:#3F0157"/>
  </linearGradient>
  <linearGradient id="id2" gradientUnits="userSpaceOnUse" x1="40.87" y1="30.21" x2="40.87" y2="13.42">
   <stop offset="0" style="stop-opacity:1; stop-color:#E86B35"/>
   <stop offset="1" style="stop-opacity:1; stop-color:#FCFC2C"/>
  </linearGradient>
  <linearGradient id="id3" gradientUnits="userSpaceOnUse" xlink:href="#id1" x1="40.57" y1="11.27" x2="40.57" y2="34.65">
  </linearGradient>
  <linearGradient id="id4" gradientUnits="userSpaceOnUse" xlink:href="#id1" x1="55.3" y1="44.56" x2="55.38" y2="35.24">
  </linearGradient>
 </defs>
 <g id="Layer_x0020_1">
  <metadata id="CorelCorpID_0Corel-Layer"/>
  <g id="_1418225920">
   <path class="fil0" d="M16.25 0c1.5,0 2.85,0.35 4.06,1.06 1.26,0.74 2.23,1.8 2.9,3.2 0.88,1.83 1.32,4.37 1.32,7.62l-0 0.16c0.84,-0.61 1.73,-1.11 2.66,-1.5 1.61,-0.68 3.28,-1.02 5.01,-1.02 1.13,0 2.19,0.15 3.2,0.45 1.09,0.32 2.07,0.82 2.95,1.5 0.3,0.23 0.58,0.47 0.84,0.73 0.9,-0.68 1.86,-1.23 2.87,-1.66 1.61,-0.68 3.28,-1.02 5.01,-1.02 1.13,0 2.19,0.15 3.2,0.45 0.41,0.12 0.81,0.27 1.2,0.45 0.11,-0.05 0.21,-0.1 0.33,-0.15l0 -0.13 -0.03 -0.81 -0 -0.13 -0.01 0 0 -0.11c0,-1.99 1.38,-3.65 3.24,-4.08 1.04,-0.34 2.05,-0.6 3.03,-0.78 1.21,-0.22 2.35,-0.33 3.41,-0.33 2.08,0 3.81,1.52 4.14,3.51 0.07,0.36 0.12,0.75 0.15,1.19 0.04,0.45 0.05,0.9 0.05,1.35l-0 0.2c0.39,0.12 0.76,0.29 1.09,0.51 1.58,-0.76 3.33,-1.13 5.23,-1.13 0.18,0 0.36,0.01 0.53,0.03l0.15 0.01c0.12,-0.04 0.25,-0.07 0.37,-0.1l-0 -0c0.56,-0.13 1.13,-0.2 1.71,-0.2 3.41,0 5.6,1.67 6.56,5 1.91,-0.04 3.65,1.24 4.13,3.17 0.03,0.13 0.06,0.26 0.08,0.39l0 -0 0.22 1.45c0.31,2.07 -0.95,4.01 -2.89,4.62 -0.5,0.2 -1.02,0.37 -1.57,0.52l-0.33 0.09c-0.19,0.6 -0.4,1.18 -0.64,1.75 -0.61,1.45 -1.38,2.79 -2.31,4.03 -2.28,3.05 -5.25,4.58 -8.89,4.58 -1.43,0 -2.77,-0.28 -4,-0.83 -0.79,-0.36 -1.52,-0.82 -2.16,-1.38 -0.7,0.45 -1.39,0.83 -2.08,1.14 -1.58,0.71 -3.14,1.07 -4.66,1.07 -2,0 -3.68,-0.67 -5.06,-2.02 -0.08,-0.07 -0.15,-0.15 -0.22,-0.22 -0.23,0.14 -0.5,0.31 -0.82,0.49l-0.05 0.03 0 0c-1.03,0.57 -2.12,1 -3.26,1.29 -1.14,0.29 -2.3,0.43 -3.49,0.43 -1.45,0 -2.79,-0.28 -4.02,-0.83 -0.1,-0.05 -0.2,-0.1 -0.3,-0.15 -0.86,-0.43 -1.64,-0.99 -2.33,-1.67 -0.16,0.11 -0.28,0.2 -0.36,0.25 -0.26,0.18 -0.62,0.39 -1.07,0.65l-0.05 0.03 0 0c-1.03,0.57 -2.12,1 -3.26,1.29 -1.14,0.29 -2.3,0.43 -3.49,0.43 -1.45,0 -2.79,-0.28 -4.02,-0.83 -0.1,-0.05 -0.2,-0.1 -0.3,-0.15 -1.15,-0.57 -2.15,-1.37 -2.99,-2.4 -0.17,-0.21 -0.33,-0.42 -0.48,-0.65 -0.61,1.46 -1.29,2.82 -2.05,4.07l0 0c-1.14,1.89 -2.5,3.39 -4.08,4.5 -0.87,0.61 -1.83,1.08 -2.87,1.41 -1.05,0.33 -2.1,0.5 -3.16,0.5 -1.21,0 -2.35,-0.24 -3.44,-0.7 -1.11,-0.48 -2.08,-1.19 -2.89,-2.12 -0.77,-0.88 -1.35,-1.87 -1.73,-2.98 -0.35,-1.04 -0.53,-2.14 -0.53,-3.31 0,-3.25 1.25,-6.22 3.76,-8.91 1.09,-1.17 2.32,-2.2 3.69,-3.1 0.69,-0.45 1.4,-0.86 2.15,-1.24 0.16,-0.86 0.29,-1.7 0.39,-2.55 0.12,-0.99 0.2,-1.98 0.24,-2.98 -1.86,0.93 -4.14,0.34 -5.32,-1.41l-0.01 0.01 -1.01 -1.49c-1.2,-1.78 -0.85,-4.15 0.74,-5.52 0.68,-0.6 1.44,-1.18 2.29,-1.74 0.82,-0.54 1.71,-1.06 2.69,-1.55 1.08,-0.55 2.16,-0.96 3.24,-1.25 1.17,-0.31 2.3,-0.46 3.4,-0.46z"/>
   <path class="fil1" d="M16.25 4.19c1.53,0 2.59,0.62 3.19,1.86 0.6,1.24 0.89,3.18 0.89,5.82 0,2.63 -0.34,5.62 -1.01,8.95 1.52,-0.2 2.77,-0.3 3.77,-0.3 0.99,0 1.65,0 1.98,0 0.05,0.2 0.07,0.5 0.07,0.89 0,0.4 -0.11,0.96 -0.34,1.68 -0.89,-0.1 -1.9,-0.14 -3,-0.11 -1.11,0.02 -2.11,0.1 -3,0.22 -0.92,3.83 -2.15,7.01 -3.69,9.54 -0.82,1.37 -1.78,2.44 -2.89,3.21 -1.11,0.77 -2.32,1.16 -3.63,1.16 -1.32,0 -2.38,-0.46 -3.19,-1.38 -0.81,-0.92 -1.21,-2.1 -1.21,-3.54 0,-2.16 0.88,-4.18 2.63,-6.06 1.75,-1.88 3.9,-3.29 6.43,-4.23 0.8,-3.36 1.19,-6.69 1.19,-9.99 0,-1.59 -0.12,-2.67 -0.35,-3.24 -0.24,-0.57 -0.58,-0.86 -1.03,-0.86 -1.12,0 -2.68,0.62 -4.7,1.86l-1.01 -1.49c1.12,-0.99 2.5,-1.91 4.14,-2.74 1.64,-0.83 3.22,-1.25 4.75,-1.25zm-9.49 27.63c0,0.52 0.1,0.93 0.3,1.23 0.27,0.42 0.65,0.63 1.12,0.63 0.8,-0.02 1.62,-0.81 2.48,-2.35 0.86,-1.54 1.58,-3.74 2.18,-6.6 -1.67,0.62 -3.09,1.61 -4.29,2.96 -1.19,1.35 -1.79,2.73 -1.79,4.12zm16.22 -8.05c0,-3.11 0.94,-5.56 2.81,-7.36 1.88,-1.8 4.01,-2.7 6.39,-2.7 1.47,0 2.67,0.36 3.62,1.08 0.94,0.72 1.42,1.68 1.42,2.89 0,1.21 -0.3,2.22 -0.91,3.04 -0.61,0.82 -1.35,1.45 -2.22,1.9 -1.76,0.87 -3.38,1.42 -4.85,1.64l-0.89 0.11c0.17,2.34 1.13,3.5 2.87,3.5 0.6,0 1.23,-0.15 1.9,-0.45 0.67,-0.3 1.19,-0.6 1.57,-0.89l0.56 -0.45 0.89 1.19c-0.2,0.27 -0.6,0.63 -1.19,1.08 -0.6,0.45 -1.16,0.82 -1.68,1.12 -1.44,0.8 -3.02,1.19 -4.73,1.19 -1.71,0 -3.07,-0.61 -4.06,-1.83 -0.99,-1.22 -1.49,-2.91 -1.49,-5.07zm5.33 -1.23c1.27,-0.22 2.27,-0.76 3.02,-1.6 0.75,-0.85 1.12,-1.94 1.12,-3.28 0,-1.34 -0.4,-2.01 -1.19,-2.01 -0.94,0 -1.67,0.8 -2.18,2.4 -0.51,1.6 -0.76,3.1 -0.76,4.49zm9.54 1.23c0,-3.11 0.94,-5.56 2.81,-7.36 1.88,-1.8 4.01,-2.7 6.39,-2.7 1.47,0 2.67,0.36 3.62,1.08 0.94,0.72 1.42,1.68 1.42,2.89 0,1.21 -0.3,2.22 -0.91,3.04 -0.61,0.82 -1.35,1.45 -2.22,1.9 -1.76,0.87 -3.38,1.42 -4.85,1.64l-0.89 0.11c0.17,2.34 1.13,3.5 2.87,3.5 0.6,0 1.23,-0.15 1.9,-0.45 0.67,-0.3 1.19,-0.6 1.57,-0.89l0.56 -0.45 0.89 1.19c-0.2,0.27 -0.6,0.63 -1.19,1.08 -0.6,0.45 -1.16,0.82 -1.68,1.12 -1.44,0.8 -3.02,1.19 -4.73,1.19 -1.71,0 -3.07,-0.61 -4.06,-1.83 -0.99,-1.22 -1.49,-2.91 -1.49,-5.07zm5.33 -1.23c1.27,-0.22 2.27,-0.76 3.02,-1.6 0.75,-0.85 1.12,-1.94 1.12,-3.28 0,-1.34 -0.4,-2.01 -1.19,-2.01 -0.94,0 -1.67,0.8 -2.18,2.4 -0.51,1.6 -0.76,3.1 -0.76,4.49zm21.36 -8.39c-0.05,0.62 -0.26,1.34 -0.63,2.16 -0.94,-0.1 -1.84,-0.15 -2.68,-0.15l-0.67 0c-1.14,5.54 -1.71,9 -1.71,10.36 0,0.72 0.16,1.08 0.47,1.08 0.31,0 1.14,-0.31 2.48,-0.93l0.67 1.23c-2.21,1.84 -4.26,2.76 -6.15,2.76 -0.87,0 -1.58,-0.27 -2.14,-0.82 -0.56,-0.55 -0.84,-1.27 -0.84,-2.18 0,-0.91 0.11,-1.93 0.32,-3.08 0.21,-1.14 0.5,-2.54 0.88,-4.19 0.37,-1.65 0.65,-2.99 0.82,-4.01 -0.92,0.07 -1.6,0.15 -2.05,0.22 -0.05,-0.3 -0.07,-0.7 -0.07,-1.21 0,-0.51 0.04,-0.93 0.11,-1.25l2.35 0c0.2,-1.34 0.3,-2.61 0.3,-3.8l-0.04 -1.16 0 -0.11c1.94,-0.67 3.77,-1.01 5.48,-1.01 0.1,0.5 0.15,1.12 0.15,1.86 0,0.75 -0.21,2.15 -0.63,4.21l3.62 0zm4.66 16.52c-1.71,0 -3.06,-0.6 -4.03,-1.81 -0.97,-1.21 -1.45,-2.89 -1.45,-5.05 0,-2.76 0.74,-5.13 2.22,-7.12 1.48,-1.99 3.52,-2.98 6.13,-2.98l1.34 0.07c0.42,-0.22 0.89,-0.34 1.42,-0.34 1.96,0 2.95,1.85 2.95,5.55 1.02,-0.05 2.05,-0.19 3.09,-0.41l0.6 -0.15 0.22 1.45c-0.82,0.35 -1.93,0.66 -3.32,0.93l-0.75 0.15c-0.47,2.61 -1.43,4.88 -2.87,6.8 -1.44,1.93 -3.29,2.89 -5.55,2.89zm2.01 -3.21c1.04,0 1.98,-0.67 2.81,-2.01 0.83,-1.34 1.41,-2.76 1.73,-4.25 -2.66,0 -3.99,-0.99 -3.99,-2.98 0,-0.8 0.16,-1.54 0.48,-2.24l0.19 -0.37c-0.1,-0.05 -0.22,-0.07 -0.37,-0.07 -0.15,0 -0.26,0.02 -0.34,0.07 -0.62,0.4 -1.21,1.33 -1.75,2.8 -0.55,1.47 -0.82,3.14 -0.82,5.03 0,2.68 0.68,4.03 2.05,4.03z"/>
   <g>
    <path class="fil2 str0" d="M85.29 8.83c1.16,0 2.1,0.94 2.1,2.1 0,1.16 -0.94,2.1 -2.1,2.1 -1.16,0 -2.1,-0.94 -2.1,-2.1 0,-1.16 0.94,-2.1 2.1,-2.1z"/>
    <path class="fil3" d="M84.41 11.91l0 -1.95 0.83 0c0.21,0 0.36,0.02 0.45,0.05 0.09,0.03 0.17,0.1 0.23,0.19 0.06,0.09 0.09,0.19 0.09,0.31 0,0.15 -0.04,0.27 -0.13,0.36 -0.09,0.1 -0.21,0.16 -0.38,0.18 0.09,0.05 0.16,0.1 0.21,0.16 0.06,0.06 0.13,0.17 0.22,0.32l0.24 0.38 -0.47 0 -0.28 -0.43c-0.1,-0.15 -0.17,-0.25 -0.21,-0.29 -0.04,-0.04 -0.08,-0.07 -0.12,-0.08 -0.04,-0.01 -0.11,-0.02 -0.2,-0.02l-0.08 0 0 0.82 -0.4 0zm0.4 -1.13l0.29 0c0.19,0 0.31,-0.01 0.35,-0.02 0.05,-0.02 0.08,-0.04 0.11,-0.08 0.03,-0.04 0.04,-0.09 0.04,-0.15 0,-0.07 -0.02,-0.12 -0.05,-0.16 -0.03,-0.04 -0.08,-0.07 -0.15,-0.08 -0.03,-0 -0.13,-0.01 -0.29,-0.01l-0.31 0 0 0.5z"/>
   </g>
   <g>
    <path class="fil4 str1" d="M29.29 35.9c14.78,-1.97 29.56,-3.95 44.34,-5.92 0.74,2.11 1.95,3.41 4.1,3.03 -0.02,0.19 0.11,0.47 -0.07,0.56 -0.51,0.26 -0.91,0.52 -0.1,0.79 0.26,0.09 0.17,0.7 -0.1,0.8 -0.71,0.27 -0.6,0.44 -0.07,0.58 0.24,0.06 0.14,0.59 -0.09,0.72 -0.42,0.25 -0.72,0.49 -0.07,0.62 0.18,0.04 0.11,0.46 -0.06,0.53 -0.56,0.23 -0.99,0.44 -0.06,0.51 0.22,0.02 -0.05,0.42 -0.07,0.63 -0.02,0.19 -0.5,0.4 -0.53,0.6 -0.03,0.26 0.4,0.5 0.37,0.75 -0.03,0.22 0.14,0.57 -0.08,0.67 -0.83,0.36 -1.05,0.61 -0.08,0.62 0.25,0 0.13,0.56 -0.09,0.7 -0.67,0.45 -0.76,0.77 -0.11,0.92 0.33,0.08 -0.08,0.67 -0.12,1 -1.9,0.08 -3.45,1.19 -4.72,3.11 -14.15,2.05 -26.86,4.93 -37.46,9.03 -0.75,-2.31 -2.38,-3.22 -5.23,-2.23 -0.07,-0.36 -0.54,-0.85 -0.2,-1.09 0.68,-0.48 0.81,-0.88 -0.2,-1.11 -0.26,-0.06 -0.39,-0.61 -0.14,-0.74 0.85,-0.45 0.75,-0.76 -0.17,-0.95 -0.3,-0.06 -0.43,-0.68 -0.16,-0.86 0.84,-0.55 1.04,-0.96 -0.19,-1.03 -0.32,-0.02 -0.43,-0.69 -0.16,-0.87 0.55,-0.38 0.41,-0.69 -0.18,-0.95 -0.25,-0.11 -0.37,-0.59 -0.15,-0.8 0.48,-0.45 0.63,-0.81 -0.17,-0.93 -0.33,-0.05 -0.5,-0.83 -0.17,-0.93 0.93,-0.28 0.89,-0.47 -0.1,-0.55 -0.24,-0.02 -0.33,-0.52 -0.12,-0.66 0.4,-0.26 0.78,-0.52 -0.12,-0.64 -0.19,-0.03 -0.24,-0.39 -0.1,-0.54 0.44,-0.47 0.24,-0.68 -0.15,-0.8 -0.17,-0.06 -0.06,-0.35 -0.1,-0.52 1.5,-0.49 2.54,-1.72 2.87,-4.06z"/>
    <path class="fil5 str1" d="M32.29 30.69c13.86,-0.39 27.73,-0.77 41.59,-1.16 0.7,2.19 1.83,3.62 3.85,3.47 -0.02,0.19 0.11,0.48 -0.06,0.56 -0.48,0.2 -0.85,0.42 -0.09,0.78 0.24,0.11 0.16,0.72 -0.09,0.79 -0.66,0.19 -0.56,0.38 -0.07,0.57 0.22,0.09 0.13,0.61 -0.08,0.72 -0.4,0.2 -0.68,0.41 -0.07,0.61 0.17,0.06 0.11,0.47 -0.06,0.52 -0.52,0.17 -0.93,0.34 -0.06,0.51 0.21,0.04 -0.04,0.42 -0.07,0.62 -0.02,0.19 -0.47,0.35 -0.49,0.54 -0.03,0.25 0.37,0.54 0.35,0.79 -0.02,0.22 0.13,0.58 -0.08,0.66 -0.78,0.27 -0.99,0.49 -0.07,0.61 0.23,0.03 0.12,0.57 -0.08,0.69 -0.63,0.38 -0.71,0.69 -0.11,0.91 0.31,0.12 -0.08,0.66 -0.12,0.99 -1.78,-0.13 -3.23,0.82 -4.43,2.6 -11.71,1.67 -23.43,3.34 -35.14,5.01 -0.7,-2.39 -2.24,-3.48 -4.91,-2.79 -0.06,-0.37 -0.5,-0.91 -0.19,-1.11 0.64,-0.41 0.76,-0.79 -0.19,-1.13 -0.24,-0.09 -0.36,-0.65 -0.13,-0.76 0.79,-0.36 0.71,-0.68 -0.16,-0.97 -0.28,-0.09 -0.4,-0.73 -0.15,-0.88 0.79,-0.46 0.98,-0.85 -0.18,-1.05 -0.3,-0.05 -0.41,-0.73 -0.15,-0.89 0.52,-0.32 0.39,-0.65 -0.16,-0.97 -0.24,-0.14 -0.34,-0.63 -0.14,-0.82 0.45,-0.4 0.59,-0.75 -0.16,-0.95 -0.31,-0.08 -0.47,-0.88 -0.16,-0.95 0.87,-0.18 0.84,-0.37 -0.09,-0.56 -0.22,-0.04 -0.31,-0.56 -0.11,-0.67 0.37,-0.22 0.73,-0.44 -0.11,-0.66 -0.18,-0.05 -0.22,-0.42 -0.09,-0.55 0.41,-0.43 0.22,-0.65 -0.14,-0.82 -0.16,-0.07 -0.06,-0.36 -0.09,-0.53 1.41,-0.33 2.38,-1.45 2.7,-3.75z"/>
    <path class="fil2 str2" d="M33.34 34.22c6.34,-0.52 31.68,-2.59 37.77,-2.67"/>
    <path class="fil2 str2" d="M38.68 49.62c10.34,-1.59 20.56,-3.09 30.54,-3.94"/>
    <path class="fil6" d="M48.94 45.95l-3.21 0.36 -0.57 -5.02 -0.09 0.01 -0.43 5.14 -2.97 0.34 -1.55 -4.91 -0.08 0.01 0.57 5.02 -3.17 0.36 -0.79 -10.59 4.52 -0.51 1.34 4.68 0.15 -0.02 0.24 -4.86 4.46 -0.51 1.58 10.5zm10.2 -1.16l-3.56 0.4 -0.52 -1.59 -1.88 0.21 -0.17 1.67 -3.41 0.39 1 -10.79 5.18 -0.59 3.38 10.29zm-4.59 -3.35l-1.05 -3.46 -0.07 0.01 -0.26 3.61 1.38 -0.16zm14.32 2.25l-3.89 0.44 -1.28 -2.76 -0.15 0.02 -0.69 2.98 -3.72 0.42 1.43 -5.59 -2.42 -4.97 3.95 -0.45 1.12 2.86 0.14 -0.02 0.53 -3.05 3.53 -0.4 -1.11 5.39 2.56 5.13z"/>
   </g>
  </g>
 </g>
</svg>
